<svg version="1.0" xmlns="http://www.w3.org/2000/svg"
 width="125.000000pt" height="150.000000pt" viewBox="0 0 125.000000 150.000000"
 preserveAspectRatio="xMidYMid meet">

<g transform="translate(0.000000,150.000000) scale(0.100000,-0.100000)"
fill="#000000" stroke="none">
<path d="M598 1143 c6 -2 18 -2 25 0 6 3 1 5 -13 5 -14 0 -19 -2 -12 -5z"/>
<path d="M523 1133 c9 -2 23 -2 30 0 6 3 -1 5 -18 5 -16 0 -22 -2 -12 -5z"/>
<path d="M700 1127 c96 -22 165 -64 218 -131 12 -16 22 -24 22 -18 0 21 -92
101 -145 126 -30 15 -76 28 -102 31 l-48 5 55 -13z"/>
<path d="M478 1123 c7 -3 16 -2 19 1 4 3 -2 6 -13 5 -11 0 -14 -3 -6 -6z"/>
<path d="M334 1048 l-19 -23 23 19 c21 18 27 26 19 26 -2 0 -12 -10 -23 -22z"/>
<path d="M266 965 c-9 -26 -7 -32 5 -12 6 10 9 21 6 23 -2 3 -7 -2 -11 -11z"/>
<path d="M951 924 c0 -11 3 -14 6 -6 3 7 2 16 -1 19 -3 4 -6 -2 -5 -13z"/>
<path d="M252 910 c0 -14 2 -19 5 -12 2 6 2 18 0 25 -3 6 -5 1 -5 -13z"/>
<path d="M960 890 c0 -6 -129 -11 -362 -12 -200 0 -348 -3 -330 -5 27 -4 32
-8 32 -30 0 -14 -7 -31 -15 -37 -12 -8 -3 -10 37 -7 45 3 62 -2 114 -30 l61
-32 55 31 55 32 160 0 c168 0 178 -3 196 -50 5 -13 6 -13 6 0 1 22 -27 60 -45
60 -9 0 -14 11 -14 30 0 27 3 30 30 30 20 0 30 5 30 15 0 8 -2 15 -5 15 -3 0
-5 -4 -5 -10z m-60 -50 l0 -30 -153 0 c-153 0 -153 0 -200 -30 -26 -16 -50
-30 -52 -30 -3 0 -27 14 -53 30 -34 21 -62 30 -91 30 -39 0 -41 1 -41 30 l0
30 295 0 295 0 0 -30z"/>
<path d="M250 733 c0 -6 8 -17 18 -24 16 -13 16 -13 2 6 -8 11 -16 22 -17 24
-2 2 -3 0 -3 -6z"/>
<path d="M298 669 c3 -20 0 -34 -9 -40 -8 -5 54 -9 153 -9 l168 0 52 -32 51
-32 58 32 c69 38 159 45 179 15 8 -12 10 -13 7 -3 -2 8 -13 20 -26 25 -18 8
-22 16 -19 43 l4 32 -311 0 -312 0 5 -31z m602 -9 c0 -29 -2 -30 -41 -30 -29
0 -57 -9 -91 -30 l-49 -31 -53 31 c-52 29 -57 30 -182 30 -155 0 -174 4 -174
36 l0 24 295 0 295 0 0 -30z"/>
<path d="M251 575 c-1 -31 14 -55 33 -55 5 0 2 6 -6 13 -9 6 -19 26 -21 42
l-4 30 -2 -30z"/>
<path d="M939 533 c-13 -16 -12 -17 4 -4 16 13 21 21 13 21 -2 0 -10 -8 -17
-17z"/>
<path d="M608 513 c245 -3 292 -6 292 -18 0 -7 -4 -17 -10 -20 -5 -3 -10 -11
-10 -18 0 -13 23 19 33 46 6 16 -12 17 -296 15 l-302 -3 293 -2z"/>
<path d="M300 503 c0 -7 13 -27 29 -45 l29 -33 234 -1 233 0 -230 5 c-126 3
-236 10 -243 15 -8 4 -22 22 -33 40 -10 17 -19 25 -19 19z"/>
<path d="M845 440 c-16 -7 -17 -9 -3 -9 9 -1 20 4 23 9 7 11 7 11 -20 0z"/>
</g>
</svg>
